bicep_curl
version=1
nRows=304
nColumns=3
inDegrees=yes

# SIMM Motion File Header:
name bicep_curl
datacolumns 3
datarows 304
otherdata 1
range 0.0000 0.3030
endheader
time	/jointset/r_shoulder/r_shoulder_elev/value	/jointset/r_elbow/r_elbow_flex/value
0.0000	0.0000	110.3200
0.0010	0.0000	110.3269
0.0020	0.0000	110.3337
0.0030	0.0000	110.3406
0.0040	0.0000	110.3474
0.0050	0.0000	110.3543
0.0060	0.0000	110.3612
0.0070	0.0000	110.3680
0.0080	0.0000	110.3749
0.0090	0.0000	110.3817
0.0100	0.0000	110.3886
0.0110	0.0000	110.3955
0.0120	0.0000	110.4023
0.0130	0.0000	110.4092
0.0140	0.0000	110.4160
0.0150	0.0000	110.4229
0.0160	0.0000	110.4298
0.0170	0.0000	110.4366
0.0180	0.0000	110.4435
0.0190	0.0000	110.4503
0.0200	0.0000	110.4572
0.0210	0.0000	110.4641
0.0220	0.0000	110.4709
0.0230	0.0000	110.4778
0.0240	0.0000	110.4846
0.0250	0.0000	110.4915
0.0260	0.0000	110.4984
0.0270	0.0000	110.5052
0.0280	0.0000	110.5121
0.0290	0.0000	110.5189
0.0300	0.0000	110.5258
0.0310	0.0000	110.5327
0.0320	0.0000	110.5395
0.0330	0.0000	110.5464
0.0340	0.0000	110.5532
0.0350	0.0000	110.5601
0.0360	0.0000	110.5670
0.0370	0.0000	110.5738
0.0380	0.0000	110.5807
0.0390	0.0000	110.5875
0.0400	0.0000	110.5944
0.0410	0.0000	110.6013
0.0420	0.0000	110.6081
0.0430	0.0000	110.6150
0.0440	0.0000	110.6218
0.0450	0.0000	110.6287
0.0460	0.0000	110.6356
0.0470	0.0000	110.6424
0.0480	0.0000	110.6493
0.0490	0.0000	110.6561
0.0500	0.0000	110.6630
0.0510	0.0000	110.6699
0.0520	0.0000	110.6767
0.0530	0.0000	110.6836
0.0540	0.0000	110.6904
0.0550	0.0000	110.6973
0.0560	0.0000	110.7042
0.0570	0.0000	110.7110
0.0580	0.0000	110.7179
0.0590	0.0000	110.7247
0.0600	0.0000	110.7316
0.0610	0.0000	110.7385
0.0620	0.0000	110.7453
0.0630	0.0000	110.7522
0.0640	0.0000	110.7590
0.0650	0.0000	110.7659
0.0660	0.0000	110.7728
0.0670	0.0000	110.7796
0.0680	0.0000	110.7865
0.0690	0.0000	110.7933
0.0700	0.0000	110.8002
0.0710	0.0000	110.8071
0.0720	0.0000	110.8139
0.0730	0.0000	110.8208
0.0740	0.0000	110.8276
0.0750	0.0000	110.8345
0.0760	0.0000	110.8414
0.0770	0.0000	110.8482
0.0780	0.0000	110.8551
0.0790	0.0000	110.8619
0.0800	0.0000	110.8688
0.0810	0.0000	110.8757
0.0820	0.0000	110.8825
0.0830	0.0000	110.8894
0.0840	0.0000	110.8962
0.0850	0.0000	110.9031
0.0860	0.0000	110.9100
0.0870	0.0000	110.9168
0.0880	0.0000	110.9237
0.0890	0.0000	110.9305
0.0900	0.0000	110.9374
0.0910	0.0000	110.9443
0.0920	0.0000	110.9511
0.0930	0.0000	110.9580
0.0940	0.0000	110.9648
0.0950	0.0000	110.9717
0.0960	0.0000	110.9786
0.0970	0.0000	110.9854
0.0980	0.0000	110.9923
0.0990	0.0000	110.9991
0.1000	0.0000	111.0060
0.1010	0.0000	111.0129
0.1020	0.0000	111.0197
0.1030	0.0000	111.0266
0.1040	0.0000	111.0334
0.1050	0.0000	111.0403
0.1060	0.0000	111.0472
0.1070	0.0000	111.0540
0.1080	0.0000	111.0609
0.1090	0.0000	111.0677
0.1100	0.0000	111.0746
0.1110	0.0000	111.0815
0.1120	0.0000	111.0883
0.1130	0.0000	111.0952
0.1140	0.0000	111.1020
0.1150	0.0000	111.1089
0.1160	0.0000	111.1158
0.1170	0.0000	111.1226
0.1180	0.0000	111.1295
0.1190	0.0000	111.1363
0.1200	0.0000	111.1432
0.1210	0.0000	111.1501
0.1220	0.0000	111.1569
0.1230	0.0000	111.1638
0.1240	0.0000	111.1706
0.1250	0.0000	111.1775
0.1260	0.0000	111.1844
0.1270	0.0000	111.1912
0.1280	0.0000	111.1981
0.1290	0.0000	111.2049
0.1300	0.0000	111.2118
0.1310	0.0000	111.2187
0.1320	0.0000	111.2255
0.1330	0.0000	111.2324
0.1340	0.0000	111.2392
0.1350	0.0000	111.2461
0.1360	0.0000	111.2530
0.1370	0.0000	111.2598
0.1380	0.0000	111.2667
0.1390	0.0000	111.2735
0.1400	0.0000	111.2804
0.1410	0.0000	111.2873
0.1420	0.0000	111.2941
0.1430	0.0000	111.3010
0.1440	0.0000	111.3078
0.1450	0.0000	111.3147
0.1460	0.0000	111.3216
0.1470	0.0000	111.3284
0.1480	0.0000	111.3353
0.1490	0.0000	111.3421
0.1500	0.0000	111.3490
0.1510	0.0000	111.3559
0.1520	0.0000	111.3627
0.1530	0.0000	111.3696
0.1540	0.0000	111.3764
0.1550	0.0000	111.3833
0.1560	0.0000	111.3902
0.1570	0.0000	111.3970
0.1580	0.0000	111.4039
0.1590	0.0000	111.4107
0.1600	0.0000	111.4176
0.1610	0.0000	111.4245
0.1620	0.0000	111.4313
0.1630	0.0000	111.4382
0.1640	0.0000	111.4450
0.1650	0.0000	111.4519
0.1660	0.0000	111.4588
0.1670	0.0000	111.4656
0.1680	0.0000	111.4725
0.1690	0.0000	111.4793
0.1700	0.0000	111.4862
0.1710	0.0000	111.4931
0.1720	0.0000	111.4999
0.1730	0.0000	111.5068
0.1740	0.0000	111.5136
0.1750	0.0000	111.5205
0.1760	0.0000	111.5274
0.1770	0.0000	111.5342
0.1780	0.0000	111.5411
0.1790	0.0000	111.5479
0.1800	0.0000	111.5548
0.1810	0.0000	111.5617
0.1820	0.0000	111.5685
0.1830	0.0000	111.5754
0.1840	0.0000	111.5822
0.1850	0.0000	111.5891
0.1860	0.0000	111.5960
0.1870	0.0000	111.6028
0.1880	0.0000	111.6097
0.1890	0.0000	111.6165
0.1900	0.0000	111.6234
0.1910	0.0000	111.6303
0.1920	0.0000	111.6371
0.1930	0.0000	111.6440
0.1940	0.0000	111.6508
0.1950	0.0000	111.6577
0.1960	0.0000	111.6646
0.1970	0.0000	111.6714
0.1980	0.0000	111.6783
0.1990	0.0000	111.6851
0.2000	0.0000	111.6920
0.2010	0.0000	111.6989
0.2020	0.0000	111.7057
0.2030	0.0000	111.7126
0.2040	0.0000	111.7194
0.2050	0.0000	111.7263
0.2060	0.0000	111.7332
0.2070	0.0000	111.7400
0.2080	0.0000	111.7469
0.2090	0.0000	111.7537
0.2100	0.0000	111.7606
0.2110	0.0000	111.7675
0.2120	0.0000	111.7743
0.2130	0.0000	111.7812
0.2140	0.0000	111.7880
0.2150	0.0000	111.7949
0.2160	0.0000	111.8018
0.2170	0.0000	111.8086
0.2180	0.0000	111.8155
0.2190	0.0000	111.8223
0.2200	0.0000	111.8292
0.2210	0.0000	111.8361
0.2220	0.0000	111.8429
0.2230	0.0000	111.8498
0.2240	0.0000	111.8566
0.2250	0.0000	111.8635
0.2260	0.0000	111.8704
0.2270	0.0000	111.8772
0.2280	0.0000	111.8841
0.2290	0.0000	111.8909
0.2300	0.0000	111.8978
0.2310	0.0000	111.9047
0.2320	0.0000	111.9115
0.2330	0.0000	111.9184
0.2340	0.0000	111.9252
0.2350	0.0000	111.9321
0.2360	0.0000	111.9390
0.2370	0.0000	111.9458
0.2380	0.0000	111.9527
0.2390	0.0000	111.9595
0.2400	0.0000	111.9664
0.2410	0.0000	111.9733
0.2420	0.0000	111.9801
0.2430	0.0000	111.9870
0.2440	0.0000	111.9938
0.2450	0.0000	112.0007
0.2460	0.0000	112.0076
0.2470	0.0000	112.0144
0.2480	0.0000	112.0213
0.2490	0.0000	112.0281
0.2500	0.0000	112.0350
0.2510	0.0000	112.0419
0.2520	0.0000	112.0487
0.2530	0.0000	112.0556
0.2540	0.0000	112.0624
0.2550	0.0000	112.0693
0.2560	0.0000	112.0762
0.2570	0.0000	112.0830
0.2580	0.0000	112.0899
0.2590	0.0000	112.0967
0.2600	0.0000	112.1036
0.2610	0.0000	112.1105
0.2620	0.0000	112.1173
0.2630	0.0000	112.1242
0.2640	0.0000	112.1310
0.2650	0.0000	112.1379
0.2660	0.0000	112.1448
0.2670	0.0000	112.1516
0.2680	0.0000	112.1585
0.2690	0.0000	112.1653
0.2700	0.0000	112.1722
0.2710	0.0000	112.1791
0.2720	0.0000	112.1859
0.2730	0.0000	112.1928
0.2740	0.0000	112.1996
0.2750	0.0000	112.2065
0.2760	0.0000	112.2134
0.2770	0.0000	112.2202
0.2780	0.0000	112.2271
0.2790	0.0000	112.2339
0.2800	0.0000	112.2408
0.2810	0.0000	112.2477
0.2820	0.0000	112.2545
0.2830	0.0000	112.2614
0.2840	0.0000	112.2682
0.2850	0.0000	112.2751
0.2860	0.0000	112.2820
0.2870	0.0000	112.2888
0.2880	0.0000	112.2957
0.2890	0.0000	112.3025
0.2900	0.0000	112.3094
0.2910	0.0000	112.3163
0.2920	0.0000	112.3231
0.2930	0.0000	112.3300
0.2940	0.0000	112.3368
0.2950	0.0000	112.3437
0.2960	0.0000	112.3506
0.2970	0.0000	112.3574
0.2980	0.0000	112.3643
0.2990	0.0000	112.3711
0.3000	0.0000	112.3780
0.3010	0.0000	112.3849
0.3020	0.0000	112.3917
0.3030	0.0000	112.3986
